<svg width="181" height="44" viewBox="0 0 181 44" fill="none" xmlns="http://www.w3.org/2000/svg">
<path fill-rule="evenodd" clip-rule="evenodd" d="M181 20.5835V21.4741C181 21.4741 180.029 21.8593 180.029 22.9939L180.035 42.0296C180.035 42.6988 179.487 43.2478 178.816 43.2478H175.061L166.796 30.2591C166.796 30.2591 166.968 31.3353 166.968 32.6886V43.2478H162.393V20.5835H165.358C166.872 20.5835 167.975 21.2057 168.768 22.4484C169.442 23.5028 175.686 33.2978 175.686 33.2978C175.686 33.2978 175.464 32.6302 175.464 30.8429V20.5835H181Z" fill="#205527"/>
<path fill-rule="evenodd" clip-rule="evenodd" d="M93.1025 20.5835V42.0296C93.1025 42.6988 92.5505 43.2478 91.8796 43.2478H88.1251L79.8605 30.2591C79.8605 30.2591 80.0328 31.3353 80.0328 32.6886V43.2478H75.4569V20.5835H78.4215C79.9357 20.5835 81.0387 21.2057 81.8313 22.4484C82.504 23.5028 88.7515 33.2978 88.7515 33.2978C88.7515 33.2978 88.5267 32.6302 88.5267 30.8429V20.5835H93.1025Z" fill="#205527"/>
<path fill-rule="evenodd" clip-rule="evenodd" d="M36.4857 20.5835H30.3677V29.2691H25.015V20.5835H17.9111V21.4741C17.9111 21.4741 18.8804 21.8384 18.8804 22.9939V43.2478H25.015V33.4137H30.3677V43.2478H36.4857V20.5835Z" fill="#205527"/>
<path fill-rule="evenodd" clip-rule="evenodd" d="M56.3016 20.5835H42.6676V41.2209C42.6676 42.3982 43.7908 43.247 44.9665 43.2478H56.3016C56.9725 43.2478 57.5245 42.698 57.5245 42.0278V39.1033H49.7059C49.1977 39.1033 48.7883 38.6859 48.7883 38.1796V33.4119H55.7557V29.2691H48.7883V24.7254H57.5245V21.8044C57.5245 21.1325 56.9725 20.5835 56.3016 20.5835Z" fill="#205527"/>
<path fill-rule="evenodd" clip-rule="evenodd" d="M69.2191 20.5835H63.0993V42.0296C63.0993 42.6988 63.653 43.2478 64.3239 43.2478H69.2191V20.5835Z" fill="#205527"/>
<path fill-rule="evenodd" clip-rule="evenodd" d="M155.983 20.5835H142.349V41.2209C142.349 42.3503 143.47 43.247 144.647 43.2478H155.983C156.655 43.2478 157.205 42.698 157.205 42.0278V39.1033H149.385C148.88 39.1033 148.468 38.6859 148.468 38.1796V33.4119H155.438V29.2691H148.468V24.7254H157.205V21.8044C157.205 21.1325 156.655 20.5835 155.983 20.5835Z" fill="#205527"/>
<path fill-rule="evenodd" clip-rule="evenodd" d="M112.917 20.5835H99.2853V41.2209C99.2853 42.3503 100.406 43.247 101.583 43.2478H112.917C113.59 43.2478 114.142 42.698 114.142 42.0278V39.1033H106.322C105.814 39.1033 105.403 38.6859 105.403 38.1796V33.4119H112.374V29.2691H105.403V24.7254H114.142V21.8044C114.142 21.1325 113.59 20.5835 112.917 20.5835Z" fill="#205527"/>
<path fill-rule="evenodd" clip-rule="evenodd" d="M138.809 20.5835H134.395C133.332 20.5835 132.517 20.8502 131.675 21.8183C130.832 22.7874 125.44 28.9772 125.44 28.9772V20.5835H119.32V42.0296C119.322 42.6997 119.872 43.2478 120.543 43.2478H125.44V32.9701C125.44 32.9701 130.029 40.1194 130.832 41.3725C131.639 42.6283 132.438 43.2478 134.275 43.2478H139.302L130.714 29.8739L138.809 20.5835Z" fill="#205527"/>
<path fill-rule="evenodd" clip-rule="evenodd" d="M6.04929 29.0014C5.73857 29.2323 5.33428 28.9322 5.45345 28.5683C5.62205 28.049 8.72573 18.3181 8.72573 18.3181L0.163244 11.9837C-0.145712 11.7527 0.0140622 11.2711 0.390106 11.2738C0.927689 11.2774 10.9749 11.2738 10.9749 11.2738C10.9749 11.2738 14.0813 1.54927 14.2437 1.02814C14.3576 0.663343 14.8634 0.656155 14.979 1.02904C15.1423 1.55107 18.2504 11.2738 18.2504 11.2738C18.2504 11.2738 28.2959 11.2774 28.8335 11.2738C29.2095 11.2711 29.3702 11.7527 29.0603 11.9837L23.952 15.761H17.9097L16.0418 9.91529L14.1766 15.761H8.13166L13.022 19.3757L11.1532 25.2241C11.1532 25.2241 6.36001 28.7723 6.04929 29.0014Z" fill="#FF2B00"/>
</svg>
